<svg width="121" height="120" viewBox="0 0 121 120" fill="none" xmlns="http://www.w3.org/2000/svg">
<path d="M60.5 15L115.5 56.25L109.5 64.25L100.5 57.5V105H20.5V57.5L11.5 64.25L5.5 56.25L60.5 15ZM37.25 60.25C37.25 64.6667 39.625 69.375 44.375 74.375C49.125 79.375 54.5 84.5833 60.5 90C66.5 84.5833 71.875 79.375 76.625 74.375C81.375 69.375 83.75 64.6667 83.75 60.25C83.75 56.5833 82.5 53.5417 80 51.125C77.5 48.7083 74.5 47.5 71 47.5C68.8333 47.5 66.8533 47.9383 65.06 48.815C63.2667 49.6917 61.7467 50.8367 60.5 52.25C59.25 50.8333 57.6883 49.6883 55.815 48.815C53.9417 47.9417 52.0033 47.5033 50 47.5C46.5 47.5 43.5 48.7083 41 51.125C38.5 53.5417 37.25 56.5833 37.25 60.25Z" fill="#854B71"/>
</svg>
