<svg width="121" height="120" viewBox="0 0 121 120" fill="none" xmlns="http://www.w3.org/2000/svg">
<path d="M40.5 58.75V37.5C40.5 35.4167 41.23 33.6467 42.69 32.19C44.15 30.7333 45.92 30.0033 48 30C50.08 29.9967 51.8517 30.7267 53.315 32.19C54.7783 33.6533 55.5067 35.4233 55.5 37.5V58.75C55.5 60.8333 54.7717 62.605 53.315 64.065C51.8583 65.525 50.0867 66.2533 48 66.25C45.9133 66.2467 44.1433 65.5183 42.69 64.065C41.2367 62.6117 40.5067 60.84 40.5 58.75ZM65.5 57.625V17.5C65.5 15.4167 66.23 13.6467 67.69 12.19C69.15 10.7333 70.92 10.0033 73 10C75.08 9.99668 76.8517 10.7267 78.315 12.19C79.7783 13.6533 80.5067 15.4233 80.5 17.5V57.625C80.5 60.125 79.73 62 78.19 63.25C76.65 64.5 74.92 65.125 73 65.125C71.08 65.125 69.3517 64.5 67.815 63.25C66.2783 62 65.5067 60.125 65.5 57.625ZM15.5 74.875V57.5C15.5 55.4167 16.23 53.6467 17.69 52.19C19.15 50.7333 20.92 50.0033 23 50C25.08 49.9967 26.8517 50.7267 28.315 52.19C29.7783 53.6533 30.5067 55.4233 30.5 57.5V74.875C30.5 77.375 29.73 79.25 28.19 80.5C26.65 81.75 24.92 82.375 23 82.375C21.08 82.375 19.3517 81.75 17.815 80.5C16.2783 79.25 15.5067 77.375 15.5 74.875ZM27.5 105.25C25.3333 105.25 23.8117 104.23 22.935 102.19C22.0583 100.15 22.4133 98.3367 24 96.75L44.5 76.25C45.4167 75.3333 46.5217 74.8333 47.815 74.75C49.1083 74.6667 50.2533 75.0833 51.25 76L65.5 88.25L93.5 60.25H90.5C89.0833 60.25 87.8967 59.77 86.94 58.81C85.9833 57.85 85.5033 56.6633 85.5 55.25C85.4967 53.8367 85.9767 52.65 86.94 51.69C87.9033 50.73 89.09 50.25 90.5 50.25H105.5C106.917 50.25 108.105 50.73 109.065 51.69C110.025 52.65 110.503 53.8367 110.5 55.25V70.25C110.5 71.6667 110.02 72.855 109.06 73.815C108.1 74.775 106.913 75.2533 105.5 75.25C104.087 75.2467 102.9 74.7667 101.94 73.81C100.98 72.8533 100.5 71.6667 100.5 70.25V67.25L69.25 98.5C68.3333 99.4167 67.2283 99.9167 65.935 100C64.6417 100.083 63.4967 99.6667 62.5 98.75L48.25 86.5L31 103.75C30.5833 104.167 30.0633 104.522 29.44 104.815C28.8167 105.108 28.17 105.253 27.5 105.25Z" fill="#854B71"/>
</svg>
