<svg width="103" height="64" viewBox="0 0 103 64" fill="none" xmlns="http://www.w3.org/2000/svg">
<path d="M49.7586 35.9355C49.7586 35.9355 49.9634 35.9355 49.9634 36.5499C49.9634 41.1784 46.0722 45.1106 43.6556 44.1276C42.4268 43.636 41.4437 41.9567 41.6895 38.6389C40.5426 43.677 36.3647 44.9467 34.4396 44.1685C32.5554 43.3903 30.6713 41.1784 32.8831 34.7477C35.7913 26.3509 41.3618 24.7125 43.0821 24.7125C44.8434 24.7125 46.5228 25.9003 46.5228 27.8664C46.5228 29.1771 46.277 29.9554 45.8674 30.8155C46.277 30.7336 46.7685 30.7336 47.2601 30.8565C48.6527 31.2251 48.6527 32.1263 48.6527 32.1263C48.6527 32.1263 46.6866 32.9455 45.7036 35.3211C45.0073 36.9595 44.8844 38.2703 46.318 38.557C48.0383 38.9256 49.7586 35.9355 49.7586 35.9355ZM38.4946 38.516C39.9282 38.516 41.198 37.0005 41.9762 35.8536C42.4268 34.8296 42.9183 33.9285 43.2869 33.2731C42.2629 33.5599 41.4437 33.1093 41.6895 32.5359C41.6895 32.5359 45.3349 29.3 42.4268 28.0303C40.9522 27.3749 38.8223 29.9554 37.6345 31.8805C36.2828 34.1743 35.7913 38.516 38.4946 38.516ZM64.5346 31.5938C64.0841 39.1304 56.4655 38.1064 58.4316 33.1503C58.8412 32.0034 59.5785 30.6927 60.1519 29.4229C60.6844 28.2351 60.6434 27.7436 60.2338 27.7026C59.4146 27.6616 57.2028 29.7506 56.2197 32.0034V32.0443C56.2197 32.0443 55.0319 34.5019 53.6802 37.2053C52.3695 39.8677 51.2636 42.7349 51.4684 44.3733C51.4684 44.3733 49.5842 44.8648 48.1506 42.9397C47.2085 41.67 47.8229 39.8267 49.0108 37.1643C50.3215 34.1333 53.6802 27.6616 53.6802 26.5147C53.7212 25.8184 53.5573 25.3679 53.4344 25.0811C53.3116 24.8354 53.4344 24.5896 53.6802 24.5896C54.5813 24.5487 56.2197 24.5896 56.8341 25.4907C57.2847 26.1051 57.4076 26.8424 57.4485 27.5387C58.3497 26.4328 60.029 24.8763 61.9951 24.9173C65.19 24.9992 64.9442 27.1291 64.0021 28.6856C63.3058 29.8325 62.8143 30.8155 62.4866 31.5528C62.1999 32.2901 62.1589 32.7407 62.2818 32.9045C62.4866 33.1912 63.3877 33.5189 64.5346 31.5938ZM79.1289 32.8636C79.2108 32.7407 79.3747 32.8226 79.3747 32.9455C78.7193 36.5499 77.6544 38.7208 74.91 38.3931C72.9849 41.6699 69.6262 45.6021 66.0217 43.9637C62.7859 42.4892 62.3353 37.6149 63.728 33.8466C65.6121 28.7266 69.7081 26.8015 71.1417 26.269C76.7942 21.0261 80.4806 28.1122 76.5894 35.2392C77.7363 35.485 78.2278 34.2971 79.1289 32.8636ZM74.0908 27.6616C71.92 28.276 72.0019 31.9215 73.7222 33.7237C75.6063 30.365 75.5654 27.252 74.0908 27.6616ZM71.92 37.0415C70.3635 35.8127 69.5443 32.0853 69.7081 30.1602C67.6192 30.8975 65.3664 36.8776 68.1107 38.5979C69.2985 39.3352 71.0188 38.2703 71.92 37.0415ZM97.5028 22.2549C97.4618 22.3368 96.0692 20.9442 93.0382 20.7803C91.4817 20.6984 89.106 21.2309 87.6314 21.8453C86.4026 24.5896 85.4606 26.8834 84.6825 28.8085C82.143 35.2802 82.102 37.5739 84.2319 38.3522C86.3617 39.0895 87.7543 36.9595 89.0241 34.5429C89.0241 34.5429 89.5566 36.0994 88.9012 37.8197C87.017 42.612 83.0441 44.8648 80.1769 44.4552C77.5964 44.0866 75.9171 41.588 77.3097 36.9595C77.7193 35.5669 78.9481 32.1263 80.2588 28.7676C81.119 26.5967 82.0201 24.3029 82.6755 22.7874C80.1769 23.2379 77.6374 23.2379 75.3027 22.7055C71.3295 21.7634 69.814 19.2239 70.1827 17.0939C70.6742 14.1039 72.7222 14.3496 72.7222 14.3496C71.3295 18.7733 80.2998 20.4936 83.8633 19.9202C85.0511 17.1759 85.215 15.6194 84.6825 14.6363C84.6006 14.4725 84.8054 14.3087 84.9692 14.3087C88.2868 14.1039 89.065 16.5615 88.5735 18.9371C93.5706 18.036 99.305 18.7733 97.5028 22.2549Z" fill="black"/>
<path d="M70.5516 6.60136C72.6815 10.2058 71.5346 13.0457 69.4047 14.6841C66.674 16.7594 62.305 16.9233 60.9396 14.4111C60.9396 14.4111 64.6533 14.4111 64.6533 10.9158C64.6533 7.2021 60.9942 6.92904 55.6421 8.18514C51.1638 9.2228 45.5933 10.9704 39.9681 12.7181C41.0058 12.9365 41.9888 13.6465 42.8626 14.9572C37.6197 16.9233 31.7215 27.2998 28.3901 36.1472C24.731 45.8137 22.2188 57.9925 26.2056 60.7778C24.3487 63.7815 18.3958 63.8361 16.9213 59.7401C14.9552 54.6065 16.8121 45.5953 20.3619 36.8571C24.2395 27.409 30.0285 17.7971 35.1621 14.138C30.9023 15.3941 26.8609 16.4864 23.5295 17.1417C10.3677 19.5447 4.3056 16.4864 2.55798 12.3904C0.810351 8.4036 3.10411 3.4884 6.81782 1.68616C6.81782 1.68616 4.57867 8.78589 14.846 9.33202C29.9193 10.0966 44.2826 5.1268 53.1299 2.88765C62.1411 0.59389 68.5309 3.16072 70.5516 6.60136Z" fill="black"/>
<path d="M35.6133 59.7334H30.7266V58.3667L31.7332 58.1533V51.6134L30.7266 51.4V50.0267H35.1199C36.3421 50.0267 37.2954 50.2511 37.9799 50.7001C38.6644 51.1489 39.0065 51.8178 39.0065 52.7067C39.0065 53.1645 38.8977 53.5756 38.6799 53.94C38.4621 54.3 38.1266 54.5733 37.6732 54.76C38.0599 54.8489 38.3755 54.9911 38.6199 55.1867C38.8644 55.3912 39.0443 55.6378 39.1599 55.9267C39.2754 56.2111 39.3333 56.52 39.3333 56.8534C39.3333 57.8045 39.0155 58.5222 38.3799 59.0067C37.7444 59.4911 36.8221 59.7334 35.6133 59.7334ZM35.1199 51.8134H34.0732V54.0534H35.0199C36.1177 54.0534 36.6666 53.6934 36.6666 52.9733C36.6666 52.5689 36.5377 52.2756 36.2799 52.0934C36.0266 51.9067 35.6399 51.8134 35.1199 51.8134ZM35.7266 55.6H34.0732V57.9534H35.6133C36.5421 57.9534 37.0066 57.5845 37.0066 56.8467C37.0066 56.5712 36.9621 56.3378 36.8732 56.1467C36.6955 55.7823 36.3132 55.6 35.7266 55.6ZM44.5332 59.8734C43.8621 59.8734 43.2444 59.7511 42.6799 59.5067C42.1199 59.2578 41.6333 58.9112 41.2199 58.4667C40.8066 58.0223 40.4866 57.5022 40.2599 56.9067C40.0377 56.3067 39.9266 55.6556 39.9266 54.9533V54.8001C39.9266 54.1022 40.0377 53.4556 40.2599 52.86C40.4866 52.2645 40.8066 51.7444 41.2199 51.3C41.6288 50.8556 42.1133 50.5089 42.6732 50.26C43.2333 50.0112 43.8488 49.8867 44.5199 49.8867C45.1777 49.8867 45.7888 50.0112 46.3532 50.26C46.9177 50.5089 47.4132 50.8556 47.8399 51.3C48.2621 51.7444 48.591 52.2645 48.8266 52.86C49.0621 53.4556 49.1799 54.1022 49.1799 54.8001V54.9533C49.1799 55.6556 49.0621 56.3067 48.8266 56.9067C48.591 57.5022 48.2621 58.0223 47.8399 58.4667C47.4177 58.9112 46.9244 59.2578 46.3599 59.5067C45.7955 59.7511 45.1866 59.8734 44.5332 59.8734ZM44.5332 58.1C45.0177 58.1 45.4355 57.9689 45.7865 57.7067C46.4977 57.1645 46.8532 56.2467 46.8532 54.9533V54.7867C46.8532 54.1778 46.7621 53.6334 46.5799 53.1534C46.3932 52.6867 46.1266 52.3222 45.7799 52.06C45.4332 51.7978 45.0132 51.6667 44.5199 51.6667C43.9955 51.6667 43.571 51.7956 43.2466 52.0534C42.9133 52.3111 42.6666 52.6734 42.5066 53.14C42.3466 53.6067 42.2665 54.1555 42.2665 54.7867V54.9533C42.2665 55.5889 42.3488 56.1401 42.5132 56.6067C42.6732 57.0778 42.9199 57.4445 43.2532 57.7067C43.591 57.9689 44.0177 58.1 44.5332 58.1ZM54.5732 59.8734C53.9022 59.8734 53.2843 59.7511 52.7199 59.5067C52.1599 59.2578 51.6733 58.9112 51.2599 58.4667C50.8465 58.0223 50.5265 57.5022 50.2999 56.9067C50.0777 56.3067 49.9666 55.6556 49.9666 54.9533V54.8001C49.9666 54.1022 50.0777 53.4556 50.2999 52.86C50.5265 52.2645 50.8465 51.7444 51.2599 51.3C51.6688 50.8556 52.1532 50.5089 52.7132 50.26C53.2732 50.0112 53.8888 49.8867 54.5599 49.8867C55.2177 49.8867 55.8288 50.0112 56.3932 50.26C56.9577 50.5089 57.4532 50.8556 57.8799 51.3C58.3021 51.7444 58.631 52.2645 58.8666 52.86C59.1021 53.4556 59.2199 54.1022 59.2199 54.8001V54.9533C59.2199 55.6556 59.1021 56.3067 58.8666 56.9067C58.631 57.5022 58.3021 58.0223 57.8799 58.4667C57.4577 58.9112 56.9643 59.2578 56.4 59.5067C55.8355 59.7511 55.2266 59.8734 54.5732 59.8734ZM54.5732 58.1C55.0577 58.1 55.4754 57.9689 55.8266 57.7067C56.5377 57.1645 56.8933 56.2467 56.8933 54.9533V54.7867C56.8933 54.1778 56.8021 53.6334 56.6199 53.1534C56.4332 52.6867 56.1666 52.3222 55.8199 52.06C55.4732 51.7978 55.0532 51.6667 54.5599 51.6667C54.0354 51.6667 53.611 51.7956 53.2866 52.0534C52.9533 52.3111 52.7066 52.6734 52.5466 53.14C52.3866 53.6067 52.3066 54.1555 52.3066 54.7867V54.9533C52.3066 55.5889 52.3888 56.1401 52.5532 56.6067C52.7132 57.0778 52.9599 57.4445 53.2932 57.7067C53.6311 57.9689 54.0577 58.1 54.5732 58.1ZM69.6866 51.4L68.7733 51.5933L66.0733 54.2267L69.0466 58.2L70.0399 58.3667V59.7334H65.36V58.3667L66.3333 58.2934H66.3466L64.4999 55.7667L63.2066 57.0267V58.1533L64.1265 58.3667V59.7334H59.8599V58.3667L60.8666 58.1533V51.6134L59.8599 51.4V50.0267H64.1265V51.4L63.2066 51.6134V54.4801L66.2466 51.4867L66.2532 51.4733L65.1533 51.4V50.0267H69.6866V51.4ZM73.6933 51.6134V58.1533L74.6999 58.3667V59.7334H70.3532V58.3667L71.3599 58.1533V51.6134L70.3532 51.4V50.0267H74.6999V51.4L73.6933 51.6134ZM78.2999 53.6534V58.1533L79.5799 58.3667V59.7334H75.2265V58.3667L76.2266 58.1533V51.6134L75.2265 51.4V50.0267H78.6066L82.4999 56.24H82.5399V51.6134L81.2666 51.4V50.0267H85.62V51.4L84.6132 51.6134V59.7334H82.3066L78.3399 53.6534H78.2999ZM90.5795 59.8734C89.5709 59.8734 88.7218 59.6778 88.0332 59.2867C87.3352 58.8956 86.8044 58.3533 86.44 57.66C86.0756 56.9622 85.893 56.1556 85.893 55.24V54.8001C85.893 53.8355 86.0731 52.9844 86.4332 52.2467C86.7933 51.5089 87.3155 50.9311 87.9999 50.5133C88.6843 50.0956 89.5112 49.8867 90.4797 49.8867C91.1419 49.8867 91.8066 49.9889 92.4731 50.1933C93.1395 50.3934 93.7266 50.7111 94.2335 51.1467V53.4201H92.5669L92.2128 52.1866C92.0618 52.0312 91.8467 51.9022 91.5668 51.8C91.2912 51.6978 90.9797 51.6467 90.6333 51.6467C90.1042 51.6467 89.6579 51.7778 89.2936 52.04C88.9334 52.3067 88.6621 52.6756 88.4803 53.1466C88.302 53.6178 88.2132 54.1645 88.2132 54.7867V55.24C88.2132 55.8311 88.3088 56.34 88.5 56.7667C88.6868 57.1978 88.9625 57.5312 89.3268 57.7667C89.6912 58.0023 90.1401 58.12 90.6734 58.12C90.9533 58.12 91.2306 58.0911 91.5063 58.0333C91.7819 57.9756 91.9978 57.9111 92.1531 57.84V56.5867L91.06 56.4533V54.84H94.4997V58.8667C93.9758 59.2045 93.3819 59.4578 92.7197 59.6267C92.0618 59.7911 91.3484 59.8734 90.5795 59.8734Z" fill="black"/>
</svg>
