<svg width="121" height="120" viewBox="0 0 121 120" fill="none" xmlns="http://www.w3.org/2000/svg">
<path d="M47.99 28.9649C55.09 19.4449 65.765 16.6649 75.585 19.3399C86.185 22.2249 95.505 31.3299 98.6 44.0099C98.76 44.6599 98.8983 45.3099 99.015 45.9599C94.5471 44.3679 89.6875 44.2453 85.145 45.6099C78.71 40.8499 70.74 40.0499 63.655 42.6599C54.78 45.9349 47.85 54.2399 46.245 64.6899C44.195 78.0699 52.345 90.0899 63.87 100.31L65.81 101.99C64.245 102.1 62.655 101.855 61.135 101.53C60.354 101.362 59.5771 101.175 58.805 100.97L56.12 100.22C32.25 93.5049 16.27 82.9999 11.685 67.2999C8.02502 54.7699 11.545 42.2249 19.285 34.4249C26.455 27.1999 37.085 24.2699 47.99 28.9649ZM56.13 66.2049C58.27 52.2449 74.415 45.3649 82.705 57.3449C82.7845 57.4563 82.9046 57.5318 83.0394 57.5552C83.1741 57.5786 83.3127 57.548 83.425 57.4699C95.31 49.0499 108.125 61.0349 105.36 74.8849C103.76 82.9183 96.31 89.5849 83.01 94.8849L80.835 95.7349L79.52 96.2749C78.385 96.7199 77.185 97.0749 76.1 96.8849C75.02 96.6949 74.015 95.9449 73.1 95.1449L71.55 93.7449C59.9833 83.7916 54.8433 74.6116 56.13 66.2049Z" fill="#854B71"/>
</svg>
