<svg width="121" height="120" viewBox="0 0 121 120" fill="none" xmlns="http://www.w3.org/2000/svg">
<path d="M56.8999 32.3999H84.8999M52.8999 52.3999L70.8999 70.3999M32.8999 56.3999V84.3999" stroke="#854B71" stroke-width="8" stroke-linecap="round" stroke-linejoin="round"/>
<path d="M38.6759 55.9519C48.4933 55.9519 56.4519 47.9933 56.4519 38.1759C56.4519 28.3585 48.4933 20.3999 38.6759 20.3999C28.8585 20.3999 20.8999 28.3585 20.8999 38.1759C20.8999 47.9933 28.8585 55.9519 38.6759 55.9519Z" stroke="#854B71" stroke-width="8" stroke-linecap="round" stroke-linejoin="round"/>
<path d="M32.8999 100.4C37.3182 100.4 40.8999 96.8182 40.8999 92.3999C40.8999 87.9816 37.3182 84.3999 32.8999 84.3999C28.4816 84.3999 24.8999 87.9816 24.8999 92.3999C24.8999 96.8182 28.4816 100.4 32.8999 100.4Z" stroke="#854B71" stroke-width="8" stroke-linecap="round" stroke-linejoin="round"/>
<path d="M76.8999 84.3999C81.3182 84.3999 84.8999 80.8182 84.8999 76.3999C84.8999 71.9816 81.3182 68.3999 76.8999 68.3999C72.4816 68.3999 68.8999 71.9816 68.8999 76.3999C68.8999 80.8182 72.4816 84.3999 76.8999 84.3999Z" stroke="#854B71" stroke-width="8" stroke-linecap="round" stroke-linejoin="round"/>
<path d="M92.8999 40.3999C97.3182 40.3999 100.9 36.8182 100.9 32.3999C100.9 27.9816 97.3182 24.3999 92.8999 24.3999C88.4816 24.3999 84.8999 27.9816 84.8999 32.3999C84.8999 36.8182 88.4816 40.3999 92.8999 40.3999Z" stroke="#854B71" stroke-width="8" stroke-linecap="round" stroke-linejoin="round"/>
</svg>
