<svg width="42" height="44" viewBox="0 0 42 44" fill="none" xmlns="http://www.w3.org/2000/svg">
<path d="M18.84 1.73639C19.0601 1.35871 19.3753 1.04534 19.7543 0.827535C20.1333 0.609734 20.5628 0.495117 21 0.495117C21.4371 0.495117 21.8666 0.609734 22.2456 0.827535C22.6246 1.04534 22.9399 1.35871 23.16 1.73639L28.75 11.3324L39.606 13.6844C40.033 13.7772 40.4282 13.9803 40.7523 14.2735C41.0764 14.5666 41.3179 14.9396 41.4529 15.3552C41.5878 15.7709 41.6115 16.2146 41.5215 16.6422C41.4315 17.0699 41.231 17.4664 40.94 17.7924L33.54 26.0744L34.66 37.1244C34.7042 37.5595 34.6334 37.9986 34.4548 38.3978C34.2762 38.797 33.996 39.1424 33.6422 39.3995C33.2884 39.6566 32.8733 39.8163 32.4385 39.8628C32.0036 39.9093 31.5641 39.8409 31.164 39.6644L21 35.1844L10.836 39.6644C10.4358 39.8409 9.99635 39.9093 9.56148 39.8628C9.12661 39.8163 8.71154 39.6566 8.35771 39.3995C8.00389 39.1424 7.7237 38.797 7.54511 38.3978C7.36652 37.9986 7.29579 37.5595 7.33997 37.1244L8.45997 26.0744L1.05997 17.7944C0.768426 17.4684 0.567481 17.0717 0.477198 16.6438C0.386914 16.2159 0.410451 15.7718 0.545457 15.3559C0.680464 14.9399 0.922217 14.5667 1.24658 14.2734C1.57095 13.9801 1.96658 13.777 2.39397 13.6844L13.25 11.3324L18.84 1.73639Z" fill="#EBBC00"/>
</svg>
