<svg width="42" height="40" viewBox="0 0 42 40" fill="none" xmlns="http://www.w3.org/2000/svg">
<path fill-rule="evenodd" clip-rule="evenodd" d="M18.4166 1.24127C18.6367 0.86359 18.952 0.550219 19.331 0.332418C19.71 0.114617 20.1395 0 20.5766 0C21.0138 0 21.4433 0.114617 21.8223 0.332418C22.2013 0.550219 22.5165 0.86359 22.7366 1.24127L28.3266 10.8373L39.1826 13.1893C39.6097 13.2821 40.0049 13.4852 40.329 13.7783C40.653 14.0715 40.8946 14.4445 41.0295 14.8601C41.1645 15.2757 41.1882 15.7195 41.0982 16.1471C41.0082 16.5747 40.8077 16.9713 40.5166 17.2973L33.1166 25.5793L34.2366 36.6293C34.2808 37.0644 34.2101 37.5035 34.0315 37.9027C33.8529 38.3019 33.5727 38.6473 33.2189 38.9044C32.8651 39.1614 32.45 39.3212 32.0151 39.3677C31.5802 39.4142 31.1408 39.3458 30.7406 39.1693L20.5766 34.6893L10.4126 39.1693C10.0125 39.3458 9.57301 39.4142 9.13814 39.3677C8.70327 39.3212 8.2882 39.1614 7.93437 38.9044C7.58055 38.6473 7.30036 38.3019 7.12177 37.9027C6.94318 37.5035 6.87245 37.0644 6.91663 36.6293L8.03663 25.5793L0.63663 17.2993C0.345086 16.9733 0.144141 16.5766 0.0538579 16.1487C-0.0364254 15.7208 -0.0128889 15.2767 0.122118 14.8608C0.257124 14.4448 0.498878 14.0716 0.823243 13.7783C1.14761 13.485 1.54324 13.2819 1.97063 13.1893L12.8266 10.8373L18.4166 1.24127ZM20.5766 5.47927L15.9506 13.4233C15.7757 13.7231 15.5403 13.9832 15.2593 14.1871C14.9783 14.3909 14.658 14.534 14.3186 14.6073L5.33463 16.5533L11.4586 23.4073C11.9266 23.9313 12.1526 24.6273 12.0826 25.3253L11.1566 34.4713L19.5686 30.7633C19.8863 30.6233 20.2295 30.5511 20.5766 30.5511C20.9237 30.5511 21.267 30.6233 21.5846 30.7633L29.9966 34.4713L29.0706 25.3253C29.0355 24.9799 29.0726 24.631 29.1797 24.3008C29.2868 23.9706 29.4615 23.6663 29.6926 23.4073L35.8186 16.5533L26.8346 14.6073C26.4953 14.534 26.175 14.3909 25.894 14.1871C25.613 13.9832 25.3775 13.7231 25.2026 13.4233L20.5766 5.47927Z" fill="#EBBC00"/>
</svg>
