<svg width="69" height="48" viewBox="0 0 69 48" fill="none" xmlns="http://www.w3.org/2000/svg">
<g clip-path="url(#clip0_22_274)">
<path d="M66.935 7.49535C66.1488 4.5449 63.8326 2.22155 60.891 1.43303C55.5598 0 34.1818 0 34.1818 0C34.1818 0 12.8039 0 7.47257 1.43303C4.53127 2.22155 2.21466 4.5449 1.42854 7.49535C0 12.8428 0 24 0 24C0 24 0 35.157 1.42854 40.505C2.21466 43.4551 4.53127 45.7784 7.47257 46.5673C12.8039 48 34.1818 48 34.1818 48C34.1818 48 55.5598 48 60.891 46.5673C63.8326 45.7784 66.1488 43.4551 66.935 40.505C68.3636 35.157 68.3636 24 68.3636 24C68.3636 24 68.3636 12.8428 66.935 7.49535Z" fill="#ED1D24"/>
<path d="M27.1901 34.1299L45.0578 24.0005L27.1901 13.8702V34.1299Z" fill="white"/>
</g>
<defs>
<clipPath id="clip0_22_274">
<rect width="68.3636" height="48" fill="white"/>
</clipPath>
</defs>
</svg>
